<svg aria-hidden="true" style="width:0;height:0;position:absolute;overflow:hidden" xmlns="http://www.w3.org/2000/svg"><defs><symbol id="icon-icons8-search" viewBox="0 0 32 32"><path fill="#127274" style="fill:var(--color1,#127274)" d="M13.375 19.113a3.956 3.956 0 0 0-.15-.369 9.093 9.093 0 0 0-.394-.775 1.675 1.675 0 0 0-.438-.519c-.262-.212-.613-.531-.981-.506a.265.265 0 0 1-.106.113c-1.838 1.156-3.688 2.406-5.213 3.969-.469.481-.919 1.031-1.263 1.637.581-.125 1.231-.044 1.788.087.362.087.731.188 1.056.363.213.113.344.313.469.512.156.262.975 1.712 1.081 2.563.563-.469 1.05-1.038 1.475-1.619 1.113-1.531 1.869-3.306 2.438-5.106.044-.131.131-.188.231-.194a.242.242 0 0 1 .031-.069c-.012-.038-.019-.056-.025-.087z"/><path fill="#74cccf" style="fill:var(--color2,#74cccf)" d="M26.95 11.512c-.087-1.494-.813-2.994-1.631-4.219-.856-1.281-1.962-2.487-3.337-3.219-2.762-1.469-6.338-.587-8.55 1.494-1.181 1.112-2.025 2.563-1.95 4.225.075 1.613.819 3.075 1.775 4.344.037.05.056.1.063.15.519.375 1.012.75 1.594 1.044.619.313 1.263.575 1.919.8 1.363.481 2.85.962 4.319.913 2.775-.094 5.981-2.512 5.8-5.531z"/><path fill="#14b6b9" style="fill:var(--color3,#14b6b9)" d="M28.306 10.025c-.406-1.463-1.113-2.844-2.012-4.063-1.762-2.4-4.45-4.475-7.581-4.181-2.988.281-6.037 2.063-7.725 4.556-.919 1.356-1.25 3.006-.969 4.619.287 1.613 1.106 3.081 2.175 4.306.063.075.081.15.069.219 1.3.981 2.85 1.638 4.412 2.063.819.225 1.644.431 2.475.594.85.163 1.731.306 2.6.231 2.538-.206 5.012-1.819 6.156-4.113a5.806 5.806 0 0 0 .4-4.231zm-5.475 7.369c-1.756.531-3.55.175-5.262-.363-.863-.269-1.725-.569-2.544-.95-.425-.2-.85-.419-1.244-.681-.344-.225-.656-.494-.994-.731a.255.255 0 0 1-.113-.269c-1.106-1.488-1.944-3.294-1.813-5.181.137-1.969 1.369-3.631 2.931-4.763 2.431-1.756 5.912-2.431 8.612-.862 1.337.775 2.45 1.912 3.319 3.188.837 1.238 1.544 2.662 1.788 4.156.488 2.963-1.988 5.644-4.681 6.456z"/><path fill="#127274" style="fill:var(--color1,#127274)" d="M8.613 26.325c0-.006 0-.019-.006-.025a3.41 3.41 0 0 0-.063-.256c-.075-.244-.169-.481-.262-.719-.2-.481-.406-.975-.694-1.413-.125-.194-.15-.244-.344-.325a4.074 4.074 0 0 0-.856-.256c-.537-.106-1.306-.244-1.806.063a.402.402 0 0 1-.125.05 3.816 3.816 0 0 0-.213 2c.106.606.394 1.194.912 1.55.575.387 1.294.444 1.956.294a4.626 4.626 0 0 0 1.494-.65.364.364 0 0 1 .006-.313zm20.856-14.731a5.784 5.784 0 0 0-.7-2.244c.456 1.463.556 3.006 0 4.481-1.012 2.706-3.7 4.744-6.544 5.119-1.856.244-3.788-.275-5.563-.762-1.662-.456-3.3-1.125-4.7-2.15-.206.056-.463-.081-.394-.344.012-.05.031-.1.05-.144-.475-.55-.9-1.144-1.244-1.781a9.594 9.594 0 0 1-.725-1.719c0 .313 0 .625.019.938.069 1.269.325 2.581 1.188 3.556a.278.278 0 0 1 .169-.144c.637-.219 1.2.113 1.681.506.331.269.512.494.719.863.137.244.744 1.244.575 1.7 1.606.712 3.281 1.031 5.031 1.15 1.831.125 3.706.119 5.344-.825 1.488-.856 2.819-2.131 3.837-3.506 1.019-1.394 1.425-2.988 1.256-4.694z"/><path style="fill:var(--color4,#000)" d="M27.512 10.938c-.244-1.488-.944-2.919-1.788-4.156-.863-1.275-1.981-2.406-3.319-3.188-2.7-1.569-6.181-.894-8.613.862-1.563 1.131-2.794 2.794-2.931 4.763-.131 1.894.706 3.7 1.813 5.181a.252.252 0 0 0 .113.269c.338.238.644.5.994.731.394.256.819.475 1.244.681.819.387 1.681.681 2.544.95 1.712.531 3.5.887 5.262.363 2.694-.813 5.169-3.494 4.681-6.456zm-6.368 6.106c-1.462.05-2.95-.431-4.319-.913a17.77 17.77 0 0 1-1.919-.8c-.581-.294-1.075-.669-1.594-1.044a.304.304 0 0 0-.063-.15c-.956-1.269-1.7-2.731-1.775-4.344-.075-1.669.769-3.112 1.95-4.225 2.213-2.075 5.787-2.962 8.55-1.494 1.375.731 2.481 1.938 3.337 3.219.819 1.225 1.544 2.731 1.631 4.219.188 3.019-3.019 5.437-5.8 5.531z"/><path style="fill:var(--color4,#000)" d="M29.656 9.719c-.394-.994-1.063-1.838-1.825-2.575-.019-.019-.038-.031-.056-.044a17.382 17.382 0 0 0-1.012-1.563c-1.756-2.381-4.4-4.425-7.475-4.412-3.006.012-6.075 1.681-8.05 3.881-.944 1.056-1.619 2.313-1.85 3.7a.324.324 0 0 0-.262.319c-.006 2.625-.613 5.719 1.238 7.894-1.438.925-2.831 1.925-4.094 3.087-1.25 1.144-2.35 2.456-2.631 4.175-.212 1.3.175 2.794 1.4 3.462 1.319.719 2.894.206 4.056-.575 1.081-.731 1.931-1.794 2.613-2.894.819-1.313 1.431-2.731 1.919-4.2 1.694.769 3.45 1.119 5.294 1.25 1.794.131 3.625.15 5.281-.644 1.556-.744 2.844-1.962 3.962-3.25 1.094-1.256 1.85-2.713 1.95-4.4.069-1.094-.05-2.2-.456-3.213zM10.988 6.338c1.688-2.494 4.738-4.275 7.725-4.556 3.131-.294 5.819 1.781 7.587 4.181.9 1.225 1.6 2.6 2.012 4.063a5.812 5.812 0 0 1-.406 4.231c-1.137 2.294-3.619 3.906-6.156 4.113-.863.069-1.75-.069-2.6-.231a34.241 34.241 0 0 1-2.475-.594c-1.556-.425-3.113-1.081-4.412-2.063a.263.263 0 0 0-.069-.219c-1.069-1.225-1.887-2.688-2.175-4.306a6.287 6.287 0 0 1 .969-4.619zM8.613 26.631a4.75 4.75 0 0 1-1.494.65c-.662.15-1.381.094-1.956-.294-.525-.356-.806-.938-.912-1.55a3.796 3.796 0 0 1 .213-2 .239.239 0 0 0 .125-.05c.5-.306 1.269-.169 1.806-.063.294.056.581.144.856.256.194.081.219.131.344.325.281.438.494.931.694 1.413.1.238.188.475.262.719a1.773 1.773 0 0 1 .069.281.328.328 0 0 0-.006.313zm4.756-7.369c-.1.006-.194.063-.231.194-.569 1.8-1.331 3.569-2.438 5.106-.419.581-.912 1.15-1.475 1.619-.106-.85-.925-2.3-1.081-2.563-.119-.2-.256-.4-.469-.512-.325-.181-.694-.281-1.056-.363-.55-.131-1.206-.212-1.787-.087.344-.6.794-1.156 1.263-1.637 1.525-1.556 3.375-2.813 5.213-3.969a.253.253 0 0 0 .106-.113c.363-.025.713.294.981.506.2.163.306.294.438.519.144.25.275.512.394.775a3.956 3.956 0 0 1 .175.444.25.25 0 0 0-.031.081zm14.843-2.987c-1.019 1.381-2.35 2.65-3.837 3.506-1.637.944-3.506.95-5.344.825-1.75-.119-3.419-.444-5.031-1.15.169-.45-.438-1.45-.575-1.7a2.645 2.645 0 0 0-.719-.863c-.488-.394-1.05-.725-1.681-.506a.28.28 0 0 0-.169.144c-.869-.975-1.125-2.287-1.188-3.556-.019-.313-.019-.625-.019-.938.181.594.431 1.169.725 1.719.344.637.769 1.231 1.244 1.781a1.015 1.015 0 0 0-.05.144c-.069.262.188.4.394.344 1.4 1.031 3.037 1.694 4.7 2.15 1.775.488 3.712 1.006 5.563.762 2.85-.375 5.538-2.413 6.544-5.119.55-1.481.456-3.019 0-4.481.375.681.619 1.431.7 2.244.169 1.719-.238 3.313-1.256 4.694z"/></symbol><symbol id="icon-dots_product" viewBox="0 0 139 32"><path fill="#fff" style="fill:var(--color5,#fff)" d="M85.368 16.028c0 8.84-7.166 16.006-16.006 16.006s-16.006-7.166-16.006-16.006S60.522.022 69.362.022s16.006 7.166 16.006 16.006zM32.013 16.028c0 8.84-7.166 16.006-16.006 16.006S.001 24.868.001 16.028 7.167.022 16.007.022s16.006 7.166 16.006 16.006zM138.722 16.028c0 8.84-7.166 16.006-16.006 16.006s-16.006-7.166-16.006-16.006S113.876.022 122.716.022s16.006 7.166 16.006 16.006z"/></symbol></defs></svg><svg aria-hidden="true" style="width:0;height:0;position:absolute;overflow:hidden" xmlns="http://www.w3.org/2000/svg"><defs><symbol id="icon-icons8-search-2" viewBox="0 0 32 32"><path d="M13.867 3.2C7.989 3.2 3.2 7.988 3.2 13.867s4.788 10.667 10.667 10.667c2.556 0 4.904-.908 6.744-2.415l6.369 6.369a1.067 1.067 0 1 0 1.509-1.508l-6.369-6.369a10.61 10.61 0 0 0 2.415-6.744c0-5.878-4.788-10.667-10.667-10.667zm0 2.133c4.725 0 8.533 3.808 8.533 8.533s-3.808 8.533-8.533 8.533-8.533-3.808-8.533-8.533 3.808-8.533 8.533-8.533z"/></symbol><symbol id="icon-dots_product" viewBox="0 0 139 32"><path fill="#fff" style="fill:var(--color1,#fff)" d="M85.368 16.028c0 8.84-7.166 16.006-16.006 16.006s-16.006-7.166-16.006-16.006S60.522.022 69.362.022s16.006 7.166 16.006 16.006zM32.013 16.028c0 8.84-7.166 16.006-16.006 16.006S.001 24.868.001 16.028 7.167.022 16.007.022s16.006 7.166 16.006 16.006zM138.722 16.028c0 8.84-7.166 16.006-16.006 16.006s-16.006-7.166-16.006-16.006S113.876.022 122.716.022s16.006 7.166 16.006 16.006z"/></symbol></defs></svg>