<svg aria-hidden="true" style="position: absolute; width: 0; height: 0; overflow: hidden;" version="1.1" xmlns="http://www.w3.org/2000/svg" xmlns:xlink="http://www.w3.org/1999/xlink">
<defs>
<symbol id="icon-icons8-search" viewBox="0 0 32 32">
<path fill="#127274" style="fill: var(--color1, #127274)" d="M13.375 19.113c-0.044-0.125-0.094-0.25-0.15-0.369-0.119-0.262-0.25-0.525-0.394-0.775-0.131-0.225-0.238-0.356-0.438-0.519-0.262-0.212-0.613-0.531-0.981-0.506-0.019 0.044-0.056 0.081-0.106 0.113-1.838 1.156-3.688 2.406-5.213 3.969-0.469 0.481-0.919 1.031-1.263 1.637 0.581-0.125 1.231-0.044 1.788 0.087 0.362 0.087 0.731 0.188 1.056 0.363 0.213 0.113 0.344 0.313 0.469 0.512 0.156 0.262 0.975 1.712 1.081 2.563 0.563-0.469 1.050-1.038 1.475-1.619 1.113-1.531 1.869-3.306 2.438-5.106 0.044-0.131 0.131-0.188 0.231-0.194 0.006-0.025 0.019-0.050 0.031-0.069-0.012-0.038-0.019-0.056-0.025-0.087z"></path>
<path fill="#74cccf" style="fill: var(--color2, #74cccf)" d="M26.95 11.512c-0.087-1.494-0.813-2.994-1.631-4.219-0.856-1.281-1.962-2.487-3.337-3.219-2.762-1.469-6.338-0.587-8.55 1.494-1.181 1.112-2.025 2.563-1.95 4.225 0.075 1.613 0.819 3.075 1.775 4.344 0.037 0.050 0.056 0.1 0.063 0.15 0.519 0.375 1.012 0.75 1.594 1.044 0.619 0.313 1.263 0.575 1.919 0.8 1.363 0.481 2.85 0.962 4.319 0.913 2.775-0.094 5.981-2.512 5.8-5.531z"></path>
<path fill="#14b6b9" style="fill: var(--color3, #14b6b9)" d="M28.306 10.025c-0.406-1.463-1.113-2.844-2.012-4.063-1.762-2.4-4.45-4.475-7.581-4.181-2.988 0.281-6.037 2.063-7.725 4.556-0.919 1.356-1.25 3.006-0.969 4.619 0.287 1.613 1.106 3.081 2.175 4.306 0.063 0.075 0.081 0.15 0.069 0.219 1.3 0.981 2.85 1.638 4.412 2.063 0.819 0.225 1.644 0.431 2.475 0.594 0.85 0.163 1.731 0.306 2.6 0.231 2.538-0.206 5.012-1.819 6.156-4.113 0.663-1.338 0.806-2.787 0.4-4.231zM22.831 17.394c-1.756 0.531-3.55 0.175-5.262-0.363-0.863-0.269-1.725-0.569-2.544-0.95-0.425-0.2-0.85-0.419-1.244-0.681-0.344-0.225-0.656-0.494-0.994-0.731-0.106-0.075-0.131-0.175-0.113-0.269-1.106-1.488-1.944-3.294-1.813-5.181 0.137-1.969 1.369-3.631 2.931-4.763 2.431-1.756 5.912-2.431 8.612-0.862 1.337 0.775 2.45 1.912 3.319 3.188 0.837 1.238 1.544 2.662 1.788 4.156 0.488 2.963-1.988 5.644-4.681 6.456z"></path>
<path fill="#127274" style="fill: var(--color1, #127274)" d="M8.613 26.325c0-0.006 0-0.019-0.006-0.025-0.019-0.087-0.037-0.169-0.063-0.256-0.075-0.244-0.169-0.481-0.262-0.719-0.2-0.481-0.406-0.975-0.694-1.413-0.125-0.194-0.15-0.244-0.344-0.325-0.275-0.119-0.563-0.2-0.856-0.256-0.537-0.106-1.306-0.244-1.806 0.063-0.044 0.025-0.088 0.044-0.125 0.050-0.237 0.631-0.331 1.306-0.213 2 0.106 0.606 0.394 1.194 0.912 1.55 0.575 0.387 1.294 0.444 1.956 0.294 0.537-0.125 1.038-0.35 1.494-0.65-0.044-0.1-0.044-0.225 0.006-0.313zM29.469 11.594c-0.081-0.819-0.325-1.563-0.7-2.244 0.456 1.463 0.556 3.006 0 4.481-1.012 2.706-3.7 4.744-6.544 5.119-1.856 0.244-3.788-0.275-5.563-0.762-1.662-0.456-3.3-1.125-4.7-2.15-0.206 0.056-0.463-0.081-0.394-0.344 0.012-0.050 0.031-0.1 0.050-0.144-0.475-0.55-0.9-1.144-1.244-1.781-0.294-0.55-0.544-1.125-0.725-1.719 0 0.313 0 0.625 0.019 0.938 0.069 1.269 0.325 2.581 1.188 3.556 0.031-0.063 0.081-0.113 0.169-0.144 0.637-0.219 1.2 0.113 1.681 0.506 0.331 0.269 0.512 0.494 0.719 0.863 0.137 0.244 0.744 1.244 0.575 1.7 1.606 0.712 3.281 1.031 5.031 1.15 1.831 0.125 3.706 0.119 5.344-0.825 1.488-0.856 2.819-2.131 3.837-3.506 1.019-1.394 1.425-2.988 1.256-4.694z"></path>
<path fill="#000" style="fill: var(--color4, #000)" d="M27.512 10.938c-0.244-1.488-0.944-2.919-1.788-4.156-0.863-1.275-1.981-2.406-3.319-3.188-2.7-1.569-6.181-0.894-8.613 0.862-1.563 1.131-2.794 2.794-2.931 4.763-0.131 1.894 0.706 3.7 1.813 5.181-0.019 0.094 0.006 0.194 0.113 0.269 0.338 0.238 0.644 0.5 0.994 0.731 0.394 0.256 0.819 0.475 1.244 0.681 0.819 0.387 1.681 0.681 2.544 0.95 1.712 0.531 3.5 0.887 5.262 0.363 2.694-0.813 5.169-3.494 4.681-6.456zM21.144 17.044c-1.462 0.050-2.95-0.431-4.319-0.913-0.656-0.231-1.294-0.494-1.919-0.8-0.581-0.294-1.075-0.669-1.594-1.044-0.006-0.050-0.025-0.1-0.063-0.15-0.956-1.269-1.7-2.731-1.775-4.344-0.075-1.669 0.769-3.112 1.95-4.225 2.213-2.075 5.787-2.962 8.55-1.494 1.375 0.731 2.481 1.938 3.337 3.219 0.819 1.225 1.544 2.731 1.631 4.219 0.188 3.019-3.019 5.437-5.8 5.531z"></path>
<path fill="#000" style="fill: var(--color4, #000)" d="M29.656 9.719c-0.394-0.994-1.063-1.838-1.825-2.575-0.019-0.019-0.038-0.031-0.056-0.044-0.313-0.55-0.656-1.069-1.012-1.563-1.756-2.381-4.4-4.425-7.475-4.412-3.006 0.012-6.075 1.681-8.050 3.881-0.944 1.056-1.619 2.313-1.85 3.7-0.137 0.031-0.256 0.137-0.262 0.319-0.006 2.625-0.613 5.719 1.238 7.894-1.438 0.925-2.831 1.925-4.094 3.087-1.25 1.144-2.35 2.456-2.631 4.175-0.212 1.3 0.175 2.794 1.4 3.462 1.319 0.719 2.894 0.206 4.056-0.575 1.081-0.731 1.931-1.794 2.613-2.894 0.819-1.313 1.431-2.731 1.919-4.2 1.694 0.769 3.45 1.119 5.294 1.25 1.794 0.131 3.625 0.15 5.281-0.644 1.556-0.744 2.844-1.962 3.962-3.25 1.094-1.256 1.85-2.713 1.95-4.4 0.069-1.094-0.050-2.2-0.456-3.213zM10.988 6.338c1.688-2.494 4.738-4.275 7.725-4.556 3.131-0.294 5.819 1.781 7.587 4.181 0.9 1.225 1.6 2.6 2.012 4.063 0.4 1.444 0.262 2.894-0.406 4.231-1.137 2.294-3.619 3.906-6.156 4.113-0.863 0.069-1.75-0.069-2.6-0.231-0.831-0.163-1.656-0.369-2.475-0.594-1.556-0.425-3.113-1.081-4.412-2.063 0.012-0.069-0.006-0.144-0.069-0.219-1.069-1.225-1.887-2.688-2.175-4.306-0.281-1.606 0.050-3.263 0.969-4.619zM8.613 26.631c-0.456 0.294-0.956 0.525-1.494 0.65-0.662 0.15-1.381 0.094-1.956-0.294-0.525-0.356-0.806-0.938-0.912-1.55-0.119-0.694-0.025-1.369 0.213-2 0.044-0.006 0.088-0.019 0.125-0.050 0.5-0.306 1.269-0.169 1.806-0.063 0.294 0.056 0.581 0.144 0.856 0.256 0.194 0.081 0.219 0.131 0.344 0.325 0.281 0.438 0.494 0.931 0.694 1.413 0.1 0.238 0.188 0.475 0.262 0.719 0.025 0.081 0.050 0.169 0.063 0.256 0 0.006 0 0.019 0.006 0.025-0.056 0.094-0.056 0.219-0.006 0.313zM13.369 19.262c-0.1 0.006-0.194 0.063-0.231 0.194-0.569 1.8-1.331 3.569-2.438 5.106-0.419 0.581-0.912 1.15-1.475 1.619-0.106-0.85-0.925-2.3-1.081-2.563-0.119-0.2-0.256-0.4-0.469-0.512-0.325-0.181-0.694-0.281-1.056-0.363-0.55-0.131-1.206-0.212-1.787-0.087 0.344-0.6 0.794-1.156 1.263-1.637 1.525-1.556 3.375-2.813 5.213-3.969 0.050-0.031 0.088-0.069 0.106-0.113 0.363-0.025 0.713 0.294 0.981 0.506 0.2 0.163 0.306 0.294 0.438 0.519 0.144 0.25 0.275 0.512 0.394 0.775 0.056 0.119 0.106 0.244 0.15 0.369 0.012 0.031 0.019 0.050 0.025 0.075-0.019 0.031-0.025 0.056-0.031 0.081zM28.212 16.275c-1.019 1.381-2.35 2.65-3.837 3.506-1.637 0.944-3.506 0.95-5.344 0.825-1.75-0.119-3.419-0.444-5.031-1.15 0.169-0.45-0.438-1.45-0.575-1.7-0.206-0.369-0.387-0.594-0.719-0.863-0.488-0.394-1.050-0.725-1.681-0.506-0.088 0.031-0.137 0.081-0.169 0.144-0.869-0.975-1.125-2.287-1.188-3.556-0.019-0.313-0.019-0.625-0.019-0.938 0.181 0.594 0.431 1.169 0.725 1.719 0.344 0.637 0.769 1.231 1.244 1.781-0.019 0.044-0.037 0.094-0.050 0.144-0.069 0.262 0.188 0.4 0.394 0.344 1.4 1.031 3.037 1.694 4.7 2.15 1.775 0.488 3.712 1.006 5.563 0.762 2.85-0.375 5.538-2.413 6.544-5.119 0.55-1.481 0.456-3.019 0-4.481 0.375 0.681 0.619 1.431 0.7 2.244 0.169 1.719-0.238 3.313-1.256 4.694z"></path>
</symbol>
<symbol id="icon-dots_product" viewBox="0 0 139 32">
<path fill="#fff" style="fill: var(--color5, #fff)" d="M85.368 16.028c0 8.84-7.166 16.006-16.006 16.006s-16.006-7.166-16.006-16.006c0-8.84 7.166-16.006 16.006-16.006s16.006 7.166 16.006 16.006z"></path>
<path fill="#fff" style="fill: var(--color5, #fff)" d="M32.013 16.028c0 8.84-7.166 16.006-16.006 16.006s-16.006-7.166-16.006-16.006c0-8.84 7.166-16.006 16.006-16.006s16.006 7.166 16.006 16.006z"></path>
<path fill="#fff" style="fill: var(--color5, #fff)" d="M138.722 16.028c0 8.84-7.166 16.006-16.006 16.006s-16.006-7.166-16.006-16.006c0-8.84 7.166-16.006 16.006-16.006s16.006 7.166 16.006 16.006z"></path>
</symbol>
</defs>
</svg><svg aria-hidden="true" style="position: absolute; width: 0; height: 0; overflow: hidden;" version="1.1" xmlns="http://www.w3.org/2000/svg" xmlns:xlink="http://www.w3.org/1999/xlink">
<defs>
<symbol id="icon-icons8-search-2" viewBox="0 0 32 32">
<path d="M13.867 3.2c-5.878 0-10.667 4.788-10.667 10.667s4.788 10.667 10.667 10.667c2.556 0 4.904-0.908 6.744-2.415l6.369 6.369c0.194 0.202 0.467 0.328 0.77 0.328 0.589 0 1.067-0.478 1.067-1.067 0-0.302-0.126-0.575-0.328-0.769l-6.369-6.369c1.507-1.84 2.415-4.187 2.415-6.744 0-5.878-4.788-10.667-10.667-10.667zM13.867 5.333c4.725 0 8.533 3.808 8.533 8.533s-3.808 8.533-8.533 8.533c-4.725 0-8.533-3.808-8.533-8.533s3.808-8.533 8.533-8.533z"></path>
</symbol>
<symbol id="icon-dots_product" viewBox="0 0 139 32">
<path fill="#fff" style="fill: var(--color1, #fff)" d="M85.368 16.028c0 8.84-7.166 16.006-16.006 16.006s-16.006-7.166-16.006-16.006c0-8.84 7.166-16.006 16.006-16.006s16.006 7.166 16.006 16.006z"></path>
<path fill="#fff" style="fill: var(--color1, #fff)" d="M32.013 16.028c0 8.84-7.166 16.006-16.006 16.006s-16.006-7.166-16.006-16.006c0-8.84 7.166-16.006 16.006-16.006s16.006 7.166 16.006 16.006z"></path>
<path fill="#fff" style="fill: var(--color1, #fff)" d="M138.722 16.028c0 8.84-7.166 16.006-16.006 16.006s-16.006-7.166-16.006-16.006c0-8.84 7.166-16.006 16.006-16.006s16.006 7.166 16.006 16.006z"></path>
</symbol>
</defs>
</svg>
